<svg xmlns="http://www.w3.org/2000/svg" class="" width="24" height="24" viewBox="0 0 18 19">
    <g id="average">
        <g>
            <path class="icon-shadow" opacity="0.3" d="M9,.5a9,9,0,1,0,9,9A9,9,0,0,0,9,.5Z"></path>
            <path class="icon-background" fill="#F7C631" d="M9,0a9,9,0,1,0,9,9A9,9,0,0,0,9,0Z"></path>
        </g>
        <g transform="translate(0, 0.8)">
            <path class="icon-component-shadow" opacity="0.2"
                d="M13.9,10.15H4.1A1.1,1.1,0,0,1,3,9.05v-1.1a1.1,1.1,0,0,1,1.1-1.1h9.8A1.1,1.1,0,0,1,15,7.95v1.1A1.1,1.1,0,0,1,13.9,10.15Z">
            </path>
            <path class="icon-component" fill="#fff"
                d="M13.9,9.65H4.1A1.1,1.1,0,0,1,3,8.55V7.45a1.1,1.1,0,0,1,1.1-1.1h9.8A1.1,1.1,0,0,1,15,7.45v1.1A1.1,1.1,0,0,1,13.9,9.65Z">
            </path>
        </g>
    </g>
</svg>